<svg width="32" height="32" viewBox="0 0 32 32" fill="none" xmlns="http://www.w3.org/2000/svg">
<rect width="32" height="32" rx="16" fill="#F9F7F2"/>
<path d="M11.8001 23.125H4.7998V16.1247C4.80026 14.2683 5.53795 12.4881 6.85068 11.1755C8.16341 9.86285 9.94369 9.1253 11.8001 9.125C13.6563 9.12561 15.4363 9.86329 16.7488 11.1759C18.0612 12.4885 18.7988 14.2685 18.7992 16.1247C18.7989 17.9811 18.0614 19.7614 16.7488 21.0741C15.4361 22.3869 13.6565 23.1245 11.8001 23.125Z" fill="#E2EAEB" stroke="#1F353D" stroke-width="0.5" stroke-linecap="round" stroke-linejoin="round"/>
<path d="M20.2006 9.125H27.2003V16.1247C27.2 17.9811 26.4624 19.7614 25.1498 21.0741C23.8372 22.3869 22.057 23.1245 20.2006 23.125C18.344 23.1248 16.5634 22.3873 15.2506 21.0745C13.9377 19.7618 13.2 17.9813 13.1997 16.1247C13.2002 14.2683 13.9379 12.4881 15.2506 11.1755C16.5633 9.86285 18.3442 9.1253 20.2006 9.125Z" fill="#FFC721" fill-opacity="0.2" stroke="#1F353D" stroke-width="0.5" stroke-linecap="round" stroke-linejoin="round"/>
</svg>
